<?xml version="1.0" encoding="UTF-8"?> <svg xmlns="http://www.w3.org/2000/svg" viewBox="0 0 250 250"> <defs> <style>.cls-1{fill:#fff;}.cls-2{fill:#103b6d;}.cls-3{fill:#012586;}.cls-4{fill:#ff4858;}</style> </defs> <g id="Слой_2" data-name="Слой 2"> <path class="cls-1" d="M125,229.22a48.07,48.07,0,0,1-48-48V122.94h96V181.2A48.07,48.07,0,0,1,125,229.22Z"></path> <path class="cls-2" d="M171,125v56.2a46,46,0,0,1-46,46h0a46,46,0,0,1-46-46V125H171m4.12-4.12H74.92V181.2a50.08,50.08,0,1,0,100.16,0V120.88Z"></path> <path class="cls-3" d="M125,234.37A53.18,53.18,0,0,1,71.83,181.2V117.79H178.17V181.2A53.18,53.18,0,0,1,125,234.37ZM82.12,128.08V181.2a42.88,42.88,0,0,0,85.76,0V128.08Z"></path> <path class="cls-3" d="M77,127.06V68.8a48,48,0,0,1,96,0v58.26Z"></path> <path class="cls-2" d="M125,22.84a46,46,0,0,1,46,46V125H79V68.8a46,46,0,0,1,46-46h0m0-4.12A50.07,50.07,0,0,0,74.92,68.8v60.32H175.08V68.8A50.07,50.07,0,0,0,125,18.72Z"></path> <path class="cls-3" d="M178.17,132.21H71.83V68.8a53.17,53.17,0,0,1,106.34,0Zm-96-10.29h85.76V68.8a42.88,42.88,0,0,0-85.76,0Z"></path> <path class="cls-4" d="M126,123.19m-1-.59a69.47,69.47,0,0,1-14.2-12c-10-11-15-23.52-15-37.21,0-17.83,13.11-32.34,29.22-32.34s29.21,14.51,29.21,32.34C154.22,102.78,130.22,119.35,125,122.6Z"></path> <path class="cls-1" d="M125,43.12c15,0,27.15,13.58,27.15,30.28a50.13,50.13,0,0,1-4.45,20.72,58.41,58.41,0,0,1-9.93,15,68.66,68.66,0,0,1-12.78,11,67.77,67.77,0,0,1-12.58-10.83,58.7,58.7,0,0,1-10-15.06A50.09,50.09,0,0,1,97.85,73.4C97.85,56.7,110,43.12,125,43.12h0M125,39h0c-17.28,0-31.28,15.4-31.28,34.4h0C93.73,107.8,125,125,125,125h0s31.27-17.2,31.27-51.6h0c0-19-14-34.4-31.27-34.4Z"></path> <path class="cls-1" d="M79,125H171v56.2a46,46,0,0,1-46,46h0a46,46,0,0,1-46-46Z"></path> <path class="cls-1" d="M95.76,69S98.32,39,125,39c25.93,0,29.23,30,29.23,30s-20.6,9.82-29.23,9.82S95.76,69,95.76,69Z"></path> <path class="cls-4" d="M154.22,181s-2.57,30-29.23,30c-25.94,0-29.23-30-29.23-30s20.6-9.82,29.23-9.82S154.22,181,154.22,181Z"></path> <path class="cls-3" d="M125,129.84a68.08,68.08,0,0,1,12.59,10.83,58.7,58.7,0,0,1,10,15.06,50.24,50.24,0,0,1,4.51,20.87c0,16.7-12.18,30.28-27.15,30.28S97.85,193.3,97.85,176.6a50,50,0,0,1,4.45-20.72,57.9,57.9,0,0,1,9.93-15,68.68,68.68,0,0,1,12.77-11m0-4.84h0s-31.27,17.2-31.27,51.6h0c0,19,14,34.4,31.27,34.4h0c17.27,0,31.27-15.4,31.27-34.4h0C156.27,142.2,125,125,125,125Z"></path> </g> </svg> 